<svg xmlns="http://www.w3.org/2000/svg" width="312.787" height="350.1" viewBox="0 0 312.787 350.1">
  <g id="icon" transform="translate(-18.656)">
    <circle id="Ellipse_1" data-name="Ellipse 1" cx="142.868" cy="142.868" r="142.868" transform="translate(20.17 42.842)" fill="#f1f1f1"/>
    <path id="Path_1" data-name="Path 1" d="M148.687,50.842c-2.163,0-4.3.07-6.446.144C221,54.009,283.9,116.735,283.9,193.706S221,333.4,142.242,336.431c2.139.078,4.283.144,6.446.144,88.361,0,159.992-63.963,159.992-142.868S237.049,50.842,148.687,50.842Z" fill="#dbdbdb"/>
    <path id="Path_2" data-name="Path 2" d="M288.762,86.506l10.379-12.565a18.961,18.961,0,0,0-2.532-26.7L286.4,38.8a18.971,18.971,0,0,0-26.713,2.54L248.026,55.452a155.252,155.252,0,0,0-34.073-13.23V24.97A25,25,0,0,0,188.984,0H161.116A25,25,0,0,0,136.15,24.97V42.218C68.674,59.552,18.656,120.9,18.656,193.706c0,86.237,70.16,156.394,156.394,156.394s156.394-70.156,156.394-156.394A155.792,155.792,0,0,0,288.762,86.506ZM175.05,323.045A129.339,129.339,0,1,1,304.389,193.706,129.485,129.485,0,0,1,175.05,323.045Z" fill="#57595d"/>
    <circle id="Ellipse_2" data-name="Ellipse 2" cx="10.662" cy="10.662" r="10.662" transform="translate(56.327 182.558)" fill="#dbdbdb"/>
    <circle id="Ellipse_3" data-name="Ellipse 3" cx="10.662" cy="10.662" r="10.662" transform="translate(164.547 74.338)" fill="#dbdbdb"/>
    <circle id="Ellipse_4" data-name="Ellipse 4" cx="10.662" cy="10.662" r="10.662" transform="translate(164.547 290.777)" fill="#dbdbdb"/>
    <circle id="Ellipse_5" data-name="Ellipse 5" cx="10.662" cy="10.662" r="10.662" transform="translate(272.767 182.558)" fill="#dbdbdb"/>
    <path id="Path_3" data-name="Path 3" d="M105.528,302.6A129.057,129.057,0,0,1,107.36,83.635a342.6,342.6,0,0,1,11.861-35.994C60.482,70.176,18.656,127.137,18.656,193.706c0,65.539,40.549,121.734,97.857,144.953A354.9,354.9,0,0,1,105.528,302.6Z" fill="#3f4042"/>
    <path id="Path_7" data-name="Path 7" d="M232.719,161.007H191.291a9.725,9.725,0,1,1,0-19.45h41.425a9.725,9.725,0,0,1,0,19.45Z" transform="translate(0 -20)" fill="#86b533"/>
    <path id="Path_8" data-name="Path 8" d="M191.291,247.98a9.724,9.724,0,0,1-9.725-9.725V151.282a9.725,9.725,0,1,1,19.45,0v86.973A9.724,9.724,0,0,1,191.291,247.98Z" transform="translate(0 -20)" fill="#86b533"/>
    <path id="Path_9" data-name="Path 9" d="M232.719,161.007H191.291a9.725,9.725,0,1,1,0-19.45h41.425a9.725,9.725,0,0,1,0,19.45Z" transform="translate(-70 -20)" fill="#86b533"/>
    <path id="Path_10" data-name="Path 10" d="M232.719,161.007H191.291a9.725,9.725,0,1,1,0-19.45h41.425a9.725,9.725,0,0,1,0,19.45Z" transform="translate(-70 25)" fill="#86b533"/>
    <path id="Path_11" data-name="Path 11" d="M232.719,247.98H191.291a9.725,9.725,0,0,1,0-19.45h31.7V151.282a9.725,9.725,0,1,1,19.45,0v86.973A9.718,9.718,0,0,1,232.719,247.98Z" transform="translate(-70 -20)" fill="#86b533"/>
    <path id="Path_12" data-name="Path 12" d="M232.719,247.98H191.291a9.725,9.725,0,0,1,0-19.45h31.7V151.282a9.725,9.725,0,1,1,19.45,0v86.973A9.718,9.718,0,0,1,232.719,247.98Z" transform="translate(0 -20)" fill="#86b533"/>
    <path id="Path_13" data-name="Path 13" d="M186.291,180.17c-2.61,0-4.725-1.579-4.725-3.529V145.086c0-1.949,2.115-3.529,4.725-3.529s4.725,1.579,4.725,3.529v31.556C191.016,178.591,188.9,180.17,186.291,180.17Z" transform="translate(15 102.809)" fill="#86b533"/>
    <path id="Path_14" data-name="Path 14" d="M186.291,180.17c-2.61,0-4.725-1.579-4.725-3.529V145.086c0-1.949,2.115-3.529,4.725-3.529s4.725,1.579,4.725,3.529v31.556C191.016,178.591,188.9,180.17,186.291,180.17Z" transform="translate(-15 102.809)" fill="#86b533"/>
    <path id="Path_15" data-name="Path 15" d="M200.8,150.389H185.223c-2.02,0-3.658-1.977-3.658-4.416s1.637-4.416,3.658-4.416H200.8c2.02,0,3.658,1.977,3.658,4.416S202.825,150.389,200.8,150.389Z" transform="translate(16 102.618)" fill="#86b533"/>
    <path id="Path_16" data-name="Path 16" d="M200.8,150.389H185.223c-2.02,0-3.658-1.977-3.658-4.416s1.637-4.416,3.658-4.416H200.8c2.02,0,3.658,1.977,3.658,4.416S202.825,150.389,200.8,150.389Z" transform="translate(15 132.618)" fill="#86b533"/>
    <path id="Path_17" data-name="Path 17" d="M200.8,150.389H185.223c-2.02,0-3.658-1.977-3.658-4.416s1.637-4.416,3.658-4.416H200.8c2.02,0,3.658,1.977,3.658,4.416S202.825,150.389,200.8,150.389Z" transform="translate(-15 102.618)" fill="#86b533"/>
    <path id="Path_18" data-name="Path 18" d="M200.8,150.389H185.223c-2.02,0-3.658-1.977-3.658-4.416s1.637-4.416,3.658-4.416H200.8c2.02,0,3.658,1.977,3.658,4.416S202.825,150.389,200.8,150.389Z" transform="translate(-15 132.618)" fill="#86b533"/>
    <path id="Path_19" data-name="Path 19" d="M200.8,150.389H185.223c-2.02,0-3.658-1.977-3.658-4.416s1.637-4.416,3.658-4.416H200.8c2.02,0,3.658,1.977,3.658,4.416S202.825,150.389,200.8,150.389Z" transform="translate(-15 118.618)" fill="#86b533"/>
    <path id="Path_20" data-name="Path 20" d="M201.271,150.389H185.312c-2.069,0-3.746-1.977-3.746-4.416s1.677-4.416,3.746-4.416H201.27c2.069,0,3.746,1.977,3.746,4.416S203.34,150.389,201.271,150.389Z" transform="translate(-46 102.618)" fill="#86b533"/>
    <path id="Path_21" data-name="Path 21" d="M200.8,150.389H185.223c-2.02,0-3.658-1.977-3.658-4.416s1.637-4.416,3.658-4.416H200.8c2.02,0,3.658,1.977,3.658,4.416S202.825,150.389,200.8,150.389Z" transform="translate(-46 117.618)" fill="#86b533"/>
    <path id="Path_22" data-name="Path 22" d="M201.2,150.553H185.3c-2.062,0-3.733-2.013-3.733-4.5s1.671-4.5,3.733-4.5h15.9c2.062,0,3.733,2.013,3.733,4.5S203.266,150.553,201.2,150.553Z" transform="matrix(1, -0.017, 0.017, 1, -48.516, 136.027)" fill="#86b533"/>
    <path id="Path_23" data-name="Path 23" d="M186.291,165.2c-2.61,0-4.725-.967-4.725-2.16v-19.32c0-1.193,2.115-2.16,4.725-2.16s4.725.967,4.725,2.16v19.32C191.016,164.231,188.9,165.2,186.291,165.2Z" transform="translate(-46 102.809)" fill="#86b533"/>
    <path id="Path_24" data-name="Path 24" d="M186.291,165.2c-2.61,0-4.725-.967-4.725-2.16v-19.32c0-1.193,2.115-2.16,4.725-2.16s4.725.967,4.725,2.16v19.32C191.016,164.231,188.9,165.2,186.291,165.2Z" transform="translate(-32 117.809)" fill="#86b533"/>
  </g>
</svg>
