<svg xmlns="http://www.w3.org/2000/svg" width="312.787" height="350.1" viewBox="0 0 312.787 350.1">
  <g id="Group_1" data-name="Group 1" transform="translate(-773 -320)">
    <g id="icon" transform="translate(754.344 320)">
      <circle id="Ellipse_1" data-name="Ellipse 1" cx="142.868" cy="142.868" r="142.868" transform="translate(35.17 47.842)" fill="#f1f1f1"/>
      <path id="Path_1" data-name="Path 1" d="M148.687,50.842c-2.163,0-4.3.07-6.446.144C221,54.009,283.9,116.735,283.9,193.706S221,333.4,142.242,336.431c2.139.078,4.283.144,6.446.144,88.361,0,159.992-63.963,159.992-142.868S237.049,50.842,148.687,50.842Z" fill="#dbdbdb"/>
      <path id="Path_2" data-name="Path 2" d="M288.762,86.506l10.379-12.565a18.961,18.961,0,0,0-2.532-26.7L286.4,38.8a18.971,18.971,0,0,0-26.713,2.54L248.026,55.452a155.252,155.252,0,0,0-34.073-13.23V24.97A25,25,0,0,0,188.984,0H161.116A25,25,0,0,0,136.15,24.97V42.218C68.674,59.552,18.656,120.9,18.656,193.706c0,86.237,70.16,156.394,156.394,156.394s156.394-70.156,156.394-156.394A155.792,155.792,0,0,0,288.762,86.506ZM175.05,323.045A129.339,129.339,0,1,1,304.389,193.706,129.485,129.485,0,0,1,175.05,323.045Z" fill="#57595d"/>
      <circle id="Ellipse_2" data-name="Ellipse 2" cx="10.662" cy="10.662" r="10.662" transform="translate(56.327 182.558)" fill="#dbdbdb"/>
      <circle id="Ellipse_3" data-name="Ellipse 3" cx="10.662" cy="10.662" r="10.662" transform="translate(164.547 74.338)" fill="#dbdbdb"/>
      <circle id="Ellipse_4" data-name="Ellipse 4" cx="10.662" cy="10.662" r="10.662" transform="translate(164.547 290.777)" fill="#dbdbdb"/>
      <circle id="Ellipse_5" data-name="Ellipse 5" cx="10.662" cy="10.662" r="10.662" transform="translate(272.767 182.558)" fill="#dbdbdb"/>
      <path id="Path_3" data-name="Path 3" d="M105.528,302.6A129.057,129.057,0,0,1,107.36,83.635a342.6,342.6,0,0,1,11.861-35.994C60.482,70.176,18.656,127.137,18.656,193.706c0,65.539,40.549,121.734,97.857,144.953A354.9,354.9,0,0,1,105.528,302.6Z" fill="#3f4042"/>
      <g id="Group_3" data-name="Group 3" transform="translate(0.7)">
        <path id="Path_29" data-name="Path 29" d="M-850.892-312.2v.014l-12-18.761v17.033c0,1.949-2.114,3.529-4.725,3.529s-4.725-1.579-4.725-3.529v-31.556c0-1.949,2.115-3.529,4.725-3.529a4.955,4.955,0,0,1,4.352,2.151l11.924,18.534v-17.136c0-1.96,2.115-3.549,4.725-3.549s4.725,1.589,4.725,3.549v31.735c0,1.96-2.115,3.548-4.725,3.548A5.019,5.019,0,0,1-850.892-312.2Z" transform="translate(1064 593)" fill="#86b533"/>
        <path id="Path_27" data-name="Path 27" d="M-862.591-331.915V-350.5c-4.785,5.5-5.256,6.147-6.652,6.147s-1.866-.642-6.651-6.147v18.583c0,1.949-2.115,3.529-4.725,3.529s-4.725-1.579-4.725-3.529v-31.556c0-1.949,2.115-3.529,4.725-3.529a5.394,5.394,0,0,1,3.766,1.4.992.992,0,0,1,.446.288l7.164,8.241,7.165-8.242a.994.994,0,0,1,.447-.288,5.4,5.4,0,0,1,3.765-1.4c2.61,0,4.725,1.579,4.725,3.529v31.556c0,1.949-2.115,3.529-4.725,3.529S-862.591-329.966-862.591-331.915Z" transform="translate(1010 611.367)" fill="#86b533"/>
        <g id="Group_2" data-name="Group 2">
          <path id="Path_26" data-name="Path 26" d="M186.291,180.389c-2.61,0-4.725-1.588-4.725-3.548V145.106c0-1.96,2.115-3.548,4.725-3.548s4.725,1.588,4.725,3.548V176.84C191.016,178.8,188.9,180.389,186.291,180.389Z" transform="translate(-11.909 102.618)" fill="#86b533"/>
          <g id="Ellipse_6" data-name="Ellipse 6" transform="translate(169.656 232)" fill="#86b533" stroke="#86b533" stroke-width="1">
            <ellipse cx="4.725" cy="4.5" rx="4.725" ry="4.5" stroke="none"/>
            <ellipse cx="4.725" cy="4.5" rx="4.225" ry="4" fill="none"/>
          </g>
        </g>
      </g>
      <path id="Path_30" data-name="Path 30" d="M191.291,210.339c-5.372,0-9.725-2.813-9.725-6.285V147.842c0-3.472,4.353-6.285,9.725-6.285s9.725,2.813,9.725,6.285v56.212C201.016,207.526,196.663,210.339,191.291,210.339Z" transform="translate(352.059 23.478) rotate(90)" fill="#86b533"/>
      <path id="Path_31" data-name="Path 31" d="M191.291,209.672c-5.372,0-9.725-2.786-9.725-6.224V147.781c0-3.438,4.353-6.224,9.725-6.224s9.725,2.786,9.725,6.224v55.666C201.016,206.886,196.663,209.672,191.291,209.672Z" transform="translate(352.059 -20.522) rotate(90)" fill="#86b533"/>
      <path id="Path_32" data-name="Path 32" d="M191.291,210.672c-5.372,0-9.725-2.827-9.725-6.316V147.873c0-3.489,4.353-6.316,9.725-6.316s9.725,2.827,9.725,6.316v56.483C201.016,207.845,196.663,210.672,191.291,210.672Z" transform="translate(352.059 -65.522) rotate(90)" fill="#86b533"/>
      <path id="Path_33" data-name="Path 33" d="M191.291,201.9c-5.372,0-9.725-2.468-9.725-5.514V147.071c0-3.046,4.353-5.514,9.725-5.514s9.725,2.468,9.725,5.514v49.311C201.016,199.428,196.663,201.9,191.291,201.9Z" transform="translate(342.736 319.607) rotate(180)" fill="#86b533"/>
      <path id="Path_34" data-name="Path 34" d="M191.291,201.9c-5.372,0-9.725-2.468-9.725-5.514V147.071c0-3.046,4.353-5.514,9.725-5.514s9.725,2.468,9.725,5.514v49.311C201.016,199.428,196.663,201.9,191.291,201.9Z" transform="translate(391.735 364.607) rotate(180)" fill="#86b533"/>
    </g>
  </g>
</svg>
