<svg id="Capa_1" enable-background="new 0 0 512 512" height="512" viewBox="0 0 512 512" width="512" xmlns="http://www.w3.org/2000/svg" xmlns:xlink="http://www.w3.org/1999/xlink"><linearGradient id="SVGID_1_" gradientUnits="userSpaceOnUse" x1="256" x2="256" y1="512" y2="0"><stop offset="0" stop-color="#ffe59a"/><stop offset="1" stop-color="#ffffd5"/></linearGradient><linearGradient id="SVGID_2_" gradientUnits="userSpaceOnUse" x1="256" x2="256" y1="407" y2="105"><stop offset="0" stop-color="#ffde00"/><stop offset="1" stop-color="#fd5900"/></linearGradient><g><g><circle cx="256" cy="256" fill="url(#SVGID_1_)" r="256"/></g><g><g><path d="m371.267 242.434c0-27.887-15.465-52.965-40.367-65.438-2.754-1.362-6.018-1.232-8.624.39-2.615 1.622-4.208 4.476-4.208 7.555v17.765c0 4.901-3.974 8.882-8.867 8.882s-8.867-3.981-8.867-8.882v-17.765c0-44.082-35.796-79.941-79.8-79.941-3.585 0-6.823 2.16-8.191 5.482-1.377 3.322-.615 7.139 1.922 9.68 13.456 13.48 20.937 49.859 13.802 67.112-2.71 6.549-6.087 6.549-7.533 6.549-4.892 0-8.866-3.981-8.866-8.882v-17.765c0-3.591-2.156-6.835-5.472-8.206-3.316-1.388-7.126-.607-9.663 1.926-23.604 23.646-37.069 55.185-37.917 89.275 1.611 56.662 47.831 103.535 106.149 103.535 61.158 0 106.502-52.504 106.502-111.272zm-115.267 75.742c-19.56 0-35.467-15.934-35.467-35.529 0-17.244 24.046-44.967 28.869-50.345 3.36-3.747 9.836-3.747 13.196 0 4.823 5.378 28.869 33.101 28.869 50.345 0 19.595-15.907 35.529-35.467 35.529zm-17.733-35.529c0 9.793 7.958 17.765 17.733 17.765s17.733-7.972 17.733-17.765c0-5.499-8.313-18.823-17.733-30.655-9.404 11.771-17.733 24.991-17.733 30.655zm-88.667 71.059c-14.668 0-26.6 11.953-26.6 26.647s11.932 26.647 26.6 26.647 26.6-11.953 26.6-26.647-11.932-26.647-26.6-26.647zm212.8 0h-97.637-79.923c5.626 7.446 9.093 16.611 9.093 26.647s-3.467 19.201-9.093 26.647h177.56c14.668 0 26.6-11.953 26.6-26.647s-11.932-26.647-26.6-26.647z" fill="url(#SVGID_2_)"/></g></g></g></svg>