<svg xmlns="http://www.w3.org/2000/svg" xmlns:xlink="http://www.w3.org/1999/xlink" width="198.409" height="204.371" viewBox="0 0 198.409 204.371">
  <defs>
    <linearGradient id="linear-gradient" x1="0.5" x2="0.5" y2="1" gradientUnits="objectBoundingBox">
      <stop offset="0" stop-color="#2af598"/>
      <stop offset="1" stop-color="#009efd"/>
    </linearGradient>
  </defs>
  <path id="repeat" d="M251.99,44.914V145.865c-.018,12.293-13.229,22.255-29.53,22.269H122.55V153.287h99.91c5.434,0,9.837-3.325,9.843-7.423V44.914c-.007-4.1-4.41-7.418-9.843-7.423h-35.5l15.915,12-13.923,10.5L149.506,30.244,188.949.5,202.872,11,187.424,22.645H222.46c16.3.014,29.512,9.976,29.53,22.269ZM121.566,77.946Zm-72.42,63.519,15.68,11.823H29.53c-5.434,0-9.837-3.325-9.843-7.423V44.914c.007-4.1,4.41-7.418,9.843-7.423H130.425V22.645H29.53C13.229,22.659.018,32.621,0,44.914V145.865c.018,12.293,13.229,22.255,29.53,22.269h35.3l-15.68,11.824,13.921,10.5,39.445-29.745L63.067,130.965Zm0,0" transform="matrix(0.777, 0, -0.044, 0.998, -3.871, 10.775)" fill="url(#linear-gradient)"/>
</svg>
